# xmcd CD database file
# Copyright (C) 1993-1998 Ti Kan
# 
# Track frame offsets:
#     182
#     13762
#     26032
#     38682
#     51215
#     66442
#     78470
#     89805
#     102497
#     114485
# 
# Disc length: 1698 seconds
# 
# Revision: 1
# Processed by: cddbd v1.4b41PL1 Copyright (c) Steve Scherf et al.
# Submitted via: DiscPlay 4.0.3
# 
DISCID=8706a00a
DTITLE=Joe Turner - Shake, Rattle, and  Roll
DYEAR=1900
DGENRE=
TTITLE0=Shake, Rattle and Roll
TTITLE1=Hide and Seek
TTITLE2=Flip, Flop, and Fly
TTITLE3=The Chill Is On
TTITLE4=Chains of Love
TTITLE5=Honey, Hush
TTITLE6=Don't You Cry
TTITLE7=TV Mama
TTITLE8=The Chicken and the Hawk (Up, Up, and Away)
TTITLE9=Corrine Corrina
EXTD=
EXTT0=
EXTT1=
EXTT2=
EXTT3=
EXTT4=
EXTT5=
EXTT6=
EXTT7=
EXTT8=
EXTT9=
PLAYORDER=
